<mxfile host="app.diagrams.net" agent="Mozilla/5.0 (Windows NT 10.0; Win64; x64) AppleWebKit/537.36 (KHTML, like Gecko) Chrome/137.0.0.0 Safari/537.36" version="27.1.3">
  <diagram id="oWuqq61Da9CcUHhwvH28" name="Page-1">
    <mxGraphModel dx="3916" dy="1249" grid="1" gridSize="10" guides="1" tooltips="1" connect="1" arrows="1" fold="1" page="1" pageScale="1" pageWidth="1600" pageHeight="1200" math="0" shadow="0">
      <root>
        <mxCell id="0" />
        <mxCell id="1" parent="0" />
        <mxCell id="2" value="&amp;laquo;Component&amp;raquo;&lt;br/&gt;&lt;b&gt;EntityFramework&lt;/b&gt;" style="html=1;dropTarget=0;whiteSpace=wrap;fillColor=#e1d5e7;strokeColor=#9673a6;" parent="1" vertex="1">
          <mxGeometry x="690" y="50" width="180" height="60" as="geometry" />
        </mxCell>
        <mxCell id="2a" value="" style="shape=module;jettyWidth=8;jettyHeight=4;" parent="2" vertex="1">
          <mxGeometry x="1" width="20" height="20" relative="1" as="geometry">
            <mxPoint x="-27" y="7" as="offset" />
          </mxGeometry>
        </mxCell>
        <mxCell id="17" value="&amp;laquo;Component&amp;raquo;&lt;br/&gt;&lt;b&gt;FilterNekretminaController&lt;/b&gt;" style="html=1;dropTarget=0;whiteSpace=wrap;fillColor=#ffcccc;strokeColor=#36393d;" parent="1" vertex="1">
          <mxGeometry x="40" y="320" width="180" height="70" as="geometry" />
        </mxCell>
        <mxCell id="17a" value="" style="shape=module;jettyWidth=8;jettyHeight=4;" parent="17" vertex="1">
          <mxGeometry x="1" width="20" height="20" relative="1" as="geometry">
            <mxPoint x="-27" y="7" as="offset" />
          </mxGeometry>
        </mxCell>
        <mxCell id="18" value="&amp;laquo;Component&amp;raquo;&lt;br/&gt;&lt;b&gt;HomeController&lt;/b&gt;" style="html=1;dropTarget=0;whiteSpace=wrap;fillColor=#ffcccc;strokeColor=#36393d;" parent="1" vertex="1">
          <mxGeometry x="-180" y="320" width="180" height="70" as="geometry" />
        </mxCell>
        <mxCell id="18a" value="" style="shape=module;jettyWidth=8;jettyHeight=4;" parent="18" vertex="1">
          <mxGeometry x="1" width="20" height="20" relative="1" as="geometry">
            <mxPoint x="-27" y="7" as="offset" />
          </mxGeometry>
        </mxCell>
        <mxCell id="24" value="&amp;laquo;Component&amp;raquo;&lt;br/&gt;&lt;b&gt;NekretminaController&lt;/b&gt;" style="html=1;dropTarget=0;whiteSpace=wrap;fillColor=#ffcccc;strokeColor=#36393d;" parent="1" vertex="1">
          <mxGeometry x="280" y="320" width="180" height="70" as="geometry" />
        </mxCell>
        <mxCell id="24a" value="" style="shape=module;jettyWidth=8;jettyHeight=4;" parent="24" vertex="1">
          <mxGeometry x="1" width="20" height="20" relative="1" as="geometry">
            <mxPoint x="-27" y="7" as="offset" />
          </mxGeometry>
        </mxCell>
        <mxCell id="25" value="&amp;laquo;Component&amp;raquo;&lt;br/&gt;&lt;b&gt;ObavjestenjeController&lt;/b&gt;" style="html=1;dropTarget=0;whiteSpace=wrap;fillColor=#ffcccc;strokeColor=#36393d;" parent="1" vertex="1">
          <mxGeometry x="525" y="320" width="180" height="70" as="geometry" />
        </mxCell>
        <mxCell id="25a" value="" style="shape=module;jettyWidth=8;jettyHeight=4;" parent="25" vertex="1">
          <mxGeometry x="1" width="20" height="20" relative="1" as="geometry">
            <mxPoint x="-27" y="7" as="offset" />
          </mxGeometry>
        </mxCell>
        <mxCell id="26" value="&amp;laquo;Component&amp;raquo;&lt;br/&gt;&lt;b&gt;OglasController&lt;/b&gt;" style="html=1;dropTarget=0;whiteSpace=wrap;fillColor=#ffcccc;strokeColor=#36393d;" parent="1" vertex="1">
          <mxGeometry x="760" y="320" width="180" height="70" as="geometry" />
        </mxCell>
        <mxCell id="26a" value="" style="shape=module;jettyWidth=8;jettyHeight=4;" parent="26" vertex="1">
          <mxGeometry x="1" width="20" height="20" relative="1" as="geometry">
            <mxPoint x="-27" y="7" as="offset" />
          </mxGeometry>
        </mxCell>
        <mxCell id="27" value="&amp;laquo;Component&amp;raquo;&lt;br/&gt;&lt;b&gt;PorukaController&lt;/b&gt;" style="html=1;dropTarget=0;whiteSpace=wrap;fillColor=#ffcccc;strokeColor=#36393d;" parent="1" vertex="1">
          <mxGeometry x="1000" y="320" width="180" height="70" as="geometry" />
        </mxCell>
        <mxCell id="27a" value="" style="shape=module;jettyWidth=8;jettyHeight=4;" parent="27" vertex="1">
          <mxGeometry x="1" width="20" height="20" relative="1" as="geometry">
            <mxPoint x="-27" y="7" as="offset" />
          </mxGeometry>
        </mxCell>
        <mxCell id="28" value="&amp;laquo;Component&amp;raquo;&lt;br/&gt;&lt;b&gt;SesijaController&lt;/b&gt;" style="html=1;dropTarget=0;whiteSpace=wrap;fillColor=#ffcccc;strokeColor=#36393d;" parent="1" vertex="1">
          <mxGeometry x="1230" y="320" width="180" height="70" as="geometry" />
        </mxCell>
        <mxCell id="28a" value="" style="shape=module;jettyWidth=8;jettyHeight=4;" parent="28" vertex="1">
          <mxGeometry x="1" width="20" height="20" relative="1" as="geometry">
            <mxPoint x="-27" y="7" as="offset" />
          </mxGeometry>
        </mxCell>
        <mxCell id="zJsW1STvs3hDgHXxntD8-28" value="«Component»&lt;br&gt;&lt;b&gt;Gost&lt;/b&gt;" style="html=1;dropTarget=0;whiteSpace=wrap;fillColor=#dae8fc;strokeColor=#6c8ebf;" vertex="1" parent="1">
          <mxGeometry x="10" y="720" width="180" height="60" as="geometry" />
        </mxCell>
        <mxCell id="zJsW1STvs3hDgHXxntD8-29" value="" style="shape=module;jettyWidth=8;jettyHeight=4;" vertex="1" parent="zJsW1STvs3hDgHXxntD8-28">
          <mxGeometry x="1" width="20" height="20" relative="1" as="geometry">
            <mxPoint x="-27" y="7" as="offset" />
          </mxGeometry>
        </mxCell>
        <mxCell id="zJsW1STvs3hDgHXxntD8-116" style="edgeStyle=elbowEdgeStyle;rounded=0;orthogonalLoop=1;jettySize=auto;html=1;exitX=0.5;exitY=0;exitDx=0;exitDy=0;endArrow=none;startFill=0;" edge="1" parent="1" source="zJsW1STvs3hDgHXxntD8-30">
          <mxGeometry relative="1" as="geometry">
            <mxPoint x="100" y="680" as="targetPoint" />
            <Array as="points">
              <mxPoint x="630" y="700" />
            </Array>
          </mxGeometry>
        </mxCell>
        <mxCell id="zJsW1STvs3hDgHXxntD8-120" style="edgeStyle=orthogonalEdgeStyle;rounded=0;orthogonalLoop=1;jettySize=auto;html=1;exitX=0.25;exitY=0;exitDx=0;exitDy=0;endArrow=none;startFill=0;" edge="1" parent="1" source="zJsW1STvs3hDgHXxntD8-30">
          <mxGeometry relative="1" as="geometry">
            <mxPoint x="120" y="630" as="targetPoint" />
            <Array as="points">
              <mxPoint x="650" y="720" />
              <mxPoint x="650" y="660" />
              <mxPoint x="120" y="660" />
            </Array>
          </mxGeometry>
        </mxCell>
        <mxCell id="zJsW1STvs3hDgHXxntD8-123" style="edgeStyle=orthogonalEdgeStyle;rounded=0;orthogonalLoop=1;jettySize=auto;html=1;exitX=0.5;exitY=0;exitDx=0;exitDy=0;endArrow=none;startFill=0;" edge="1" parent="1">
          <mxGeometry relative="1" as="geometry">
            <mxPoint x="280" y="497" as="targetPoint" />
            <mxPoint x="680" y="717" as="sourcePoint" />
            <Array as="points">
              <mxPoint x="680" y="610" />
              <mxPoint x="280" y="610" />
            </Array>
          </mxGeometry>
        </mxCell>
        <mxCell id="zJsW1STvs3hDgHXxntD8-117" style="edgeStyle=elbowEdgeStyle;rounded=0;orthogonalLoop=1;jettySize=auto;html=1;exitX=0.25;exitY=1;exitDx=0;exitDy=0;endArrow=none;startFill=0;" edge="1" parent="1" source="zJsW1STvs3hDgHXxntD8-36">
          <mxGeometry relative="1" as="geometry">
            <mxPoint x="630" y="680" as="targetPoint" />
            <mxPoint x="1150" y="780" as="sourcePoint" />
            <Array as="points">
              <mxPoint x="1260" y="700" />
            </Array>
          </mxGeometry>
        </mxCell>
        <mxCell id="zJsW1STvs3hDgHXxntD8-118" value="Text" style="edgeLabel;html=1;align=center;verticalAlign=middle;resizable=0;points=[];" vertex="1" connectable="0" parent="zJsW1STvs3hDgHXxntD8-117">
          <mxGeometry x="-0.9942" y="-3" relative="1" as="geometry">
            <mxPoint as="offset" />
          </mxGeometry>
        </mxCell>
        <mxCell id="zJsW1STvs3hDgHXxntD8-121" style="edgeStyle=orthogonalEdgeStyle;rounded=0;orthogonalLoop=1;jettySize=auto;html=1;exitX=0.5;exitY=0;exitDx=0;exitDy=0;endArrow=none;startFill=0;" edge="1" parent="1" source="zJsW1STvs3hDgHXxntD8-36">
          <mxGeometry relative="1" as="geometry">
            <mxPoint x="650" y="660" as="targetPoint" />
            <Array as="points">
              <mxPoint x="1310" y="660" />
              <mxPoint x="670" y="660" />
            </Array>
          </mxGeometry>
        </mxCell>
        <mxCell id="zJsW1STvs3hDgHXxntD8-36" value="«Component»&lt;br&gt;&lt;b&gt;RegistrovaniKorisnik&lt;/b&gt;" style="html=1;dropTarget=0;whiteSpace=wrap;fillColor=#cce5ff;strokeColor=#36393d;" vertex="1" parent="1">
          <mxGeometry x="1220" y="720" width="180" height="60" as="geometry" />
        </mxCell>
        <mxCell id="zJsW1STvs3hDgHXxntD8-37" value="" style="shape=module;jettyWidth=8;jettyHeight=4;" vertex="1" parent="zJsW1STvs3hDgHXxntD8-36">
          <mxGeometry x="1" width="20" height="20" relative="1" as="geometry">
            <mxPoint x="-27" y="7" as="offset" />
          </mxGeometry>
        </mxCell>
        <mxCell id="zJsW1STvs3hDgHXxntD8-40" value="" style="ellipse;whiteSpace=wrap;html=1;align=center;aspect=fixed;fillColor=none;strokeColor=none;resizable=0;perimeter=centerPerimeter;rotatable=0;allowArrows=0;points=[];outlineConnect=1;" vertex="1" parent="1">
          <mxGeometry x="-95" y="180" width="10" height="10" as="geometry" />
        </mxCell>
        <mxCell id="zJsW1STvs3hDgHXxntD8-44" style="edgeStyle=orthogonalEdgeStyle;rounded=0;orthogonalLoop=1;jettySize=auto;html=1;exitX=0;exitY=0.5;exitDx=0;exitDy=0;exitPerimeter=0;entryX=0.072;entryY=1.013;entryDx=0;entryDy=0;entryPerimeter=0;endArrow=none;startFill=0;" edge="1" parent="1" source="zJsW1STvs3hDgHXxntD8-41" target="2">
          <mxGeometry relative="1" as="geometry">
            <mxPoint x="270" y="200.0000000000001" as="targetPoint" />
            <Array as="points">
              <mxPoint x="-85" y="160" />
              <mxPoint x="703" y="160" />
            </Array>
          </mxGeometry>
        </mxCell>
        <mxCell id="zJsW1STvs3hDgHXxntD8-46" style="edgeStyle=orthogonalEdgeStyle;rounded=0;orthogonalLoop=1;jettySize=auto;html=1;exitX=1;exitY=0.5;exitDx=0;exitDy=0;exitPerimeter=0;entryX=0.522;entryY=-0.004;entryDx=0;entryDy=0;entryPerimeter=0;endArrow=none;startFill=0;" edge="1" parent="1" source="zJsW1STvs3hDgHXxntD8-41" target="18">
          <mxGeometry relative="1" as="geometry">
            <mxPoint x="-85.5" y="310.0000000000001" as="targetPoint" />
          </mxGeometry>
        </mxCell>
        <mxCell id="zJsW1STvs3hDgHXxntD8-41" value="" style="shape=providedRequiredInterface;html=1;verticalLabelPosition=bottom;sketch=0;direction=south;" vertex="1" parent="1">
          <mxGeometry x="-95" y="260.5" width="20" height="20" as="geometry" />
        </mxCell>
        <mxCell id="zJsW1STvs3hDgHXxntD8-48" value="" style="ellipse;whiteSpace=wrap;html=1;align=center;aspect=fixed;fillColor=none;strokeColor=none;resizable=0;perimeter=centerPerimeter;rotatable=0;allowArrows=0;points=[];outlineConnect=1;" vertex="1" parent="1">
          <mxGeometry x="109" y="230" width="10" height="10" as="geometry" />
        </mxCell>
        <mxCell id="zJsW1STvs3hDgHXxntD8-49" style="edgeStyle=orthogonalEdgeStyle;rounded=0;orthogonalLoop=1;jettySize=auto;html=1;exitX=0;exitY=0.5;exitDx=0;exitDy=0;exitPerimeter=0;endArrow=none;startFill=0;" edge="1" parent="1" source="zJsW1STvs3hDgHXxntD8-51">
          <mxGeometry relative="1" as="geometry">
            <mxPoint x="720" y="110" as="targetPoint" />
            <Array as="points">
              <mxPoint x="119" y="180" />
              <mxPoint x="720" y="180" />
              <mxPoint x="720" y="110" />
            </Array>
          </mxGeometry>
        </mxCell>
        <mxCell id="zJsW1STvs3hDgHXxntD8-50" style="edgeStyle=orthogonalEdgeStyle;rounded=0;orthogonalLoop=1;jettySize=auto;html=1;exitX=1;exitY=0.5;exitDx=0;exitDy=0;exitPerimeter=0;endArrow=none;startFill=0;entryX=0.44;entryY=-0.011;entryDx=0;entryDy=0;entryPerimeter=0;" edge="1" parent="1" source="zJsW1STvs3hDgHXxntD8-51" target="17">
          <mxGeometry relative="1" as="geometry">
            <mxPoint x="118" y="320" as="targetPoint" />
          </mxGeometry>
        </mxCell>
        <mxCell id="zJsW1STvs3hDgHXxntD8-51" value="" style="shape=providedRequiredInterface;html=1;verticalLabelPosition=bottom;sketch=0;direction=south;" vertex="1" parent="1">
          <mxGeometry x="109" y="260.5" width="20" height="20" as="geometry" />
        </mxCell>
        <mxCell id="zJsW1STvs3hDgHXxntD8-53" value="" style="ellipse;whiteSpace=wrap;html=1;align=center;aspect=fixed;fillColor=none;strokeColor=none;resizable=0;perimeter=centerPerimeter;rotatable=0;allowArrows=0;points=[];outlineConnect=1;" vertex="1" parent="1">
          <mxGeometry x="360" y="250.5" width="10" height="10" as="geometry" />
        </mxCell>
        <mxCell id="zJsW1STvs3hDgHXxntD8-54" style="edgeStyle=orthogonalEdgeStyle;rounded=0;orthogonalLoop=1;jettySize=auto;html=1;exitX=0;exitY=0.5;exitDx=0;exitDy=0;exitPerimeter=0;endArrow=none;startFill=0;entryX=0.222;entryY=1.011;entryDx=0;entryDy=0;entryPerimeter=0;" edge="1" parent="1" source="zJsW1STvs3hDgHXxntD8-56" target="2">
          <mxGeometry relative="1" as="geometry">
            <mxPoint x="780" y="131" as="targetPoint" />
            <Array as="points">
              <mxPoint x="370" y="201" />
              <mxPoint x="730" y="201" />
            </Array>
          </mxGeometry>
        </mxCell>
        <mxCell id="zJsW1STvs3hDgHXxntD8-55" style="edgeStyle=orthogonalEdgeStyle;rounded=0;orthogonalLoop=1;jettySize=auto;html=1;exitX=1;exitY=0.5;exitDx=0;exitDy=0;exitPerimeter=0;endArrow=none;startFill=0;" edge="1" parent="1" source="zJsW1STvs3hDgHXxntD8-56">
          <mxGeometry relative="1" as="geometry">
            <mxPoint x="370" y="320" as="targetPoint" />
          </mxGeometry>
        </mxCell>
        <mxCell id="zJsW1STvs3hDgHXxntD8-56" value="" style="shape=providedRequiredInterface;html=1;verticalLabelPosition=bottom;sketch=0;direction=south;" vertex="1" parent="1">
          <mxGeometry x="360" y="260.5" width="20" height="20" as="geometry" />
        </mxCell>
        <mxCell id="zJsW1STvs3hDgHXxntD8-57" value="" style="ellipse;whiteSpace=wrap;html=1;align=center;aspect=fixed;fillColor=none;strokeColor=none;resizable=0;perimeter=centerPerimeter;rotatable=0;allowArrows=0;points=[];outlineConnect=1;" vertex="1" parent="1">
          <mxGeometry x="600" y="231" width="10" height="10" as="geometry" />
        </mxCell>
        <mxCell id="zJsW1STvs3hDgHXxntD8-59" style="edgeStyle=orthogonalEdgeStyle;rounded=0;orthogonalLoop=1;jettySize=auto;html=1;exitX=1;exitY=0.5;exitDx=0;exitDy=0;exitPerimeter=0;endArrow=none;startFill=0;entryX=0.44;entryY=-0.011;entryDx=0;entryDy=0;entryPerimeter=0;" edge="1" parent="1" source="zJsW1STvs3hDgHXxntD8-60">
          <mxGeometry relative="1" as="geometry">
            <mxPoint x="610" y="320" as="targetPoint" />
          </mxGeometry>
        </mxCell>
        <mxCell id="zJsW1STvs3hDgHXxntD8-60" value="" style="shape=providedRequiredInterface;html=1;verticalLabelPosition=bottom;sketch=0;direction=south;" vertex="1" parent="1">
          <mxGeometry x="600" y="260.5" width="20" height="20" as="geometry" />
        </mxCell>
        <mxCell id="zJsW1STvs3hDgHXxntD8-62" style="edgeStyle=orthogonalEdgeStyle;rounded=0;orthogonalLoop=1;jettySize=auto;html=1;exitX=0;exitY=0.5;exitDx=0;exitDy=0;exitPerimeter=0;entryX=0.316;entryY=1;entryDx=0;entryDy=0;entryPerimeter=0;endArrow=none;startFill=0;" edge="1" parent="1" source="zJsW1STvs3hDgHXxntD8-60" target="2">
          <mxGeometry relative="1" as="geometry">
            <Array as="points">
              <mxPoint x="610" y="220" />
              <mxPoint x="747" y="220" />
            </Array>
          </mxGeometry>
        </mxCell>
        <mxCell id="zJsW1STvs3hDgHXxntD8-63" value="" style="shape=providedRequiredInterface;html=1;verticalLabelPosition=bottom;sketch=0;direction=south;" vertex="1" parent="1">
          <mxGeometry x="830" y="260.5" width="20" height="20" as="geometry" />
        </mxCell>
        <mxCell id="zJsW1STvs3hDgHXxntD8-64" style="edgeStyle=orthogonalEdgeStyle;rounded=0;orthogonalLoop=1;jettySize=auto;html=1;exitX=1;exitY=0.5;exitDx=0;exitDy=0;exitPerimeter=0;entryX=0.443;entryY=-0.021;entryDx=0;entryDy=0;entryPerimeter=0;endArrow=none;startFill=0;" edge="1" parent="1" source="zJsW1STvs3hDgHXxntD8-63" target="26">
          <mxGeometry relative="1" as="geometry" />
        </mxCell>
        <mxCell id="zJsW1STvs3hDgHXxntD8-65" style="edgeStyle=orthogonalEdgeStyle;rounded=0;orthogonalLoop=1;jettySize=auto;html=1;exitX=0;exitY=0.5;exitDx=0;exitDy=0;exitPerimeter=0;endArrow=none;startFill=0;" edge="1" parent="1" source="zJsW1STvs3hDgHXxntD8-63">
          <mxGeometry relative="1" as="geometry">
            <mxPoint x="788" y="110" as="targetPoint" />
            <Array as="points">
              <mxPoint x="840" y="220" />
              <mxPoint x="789" y="220" />
              <mxPoint x="789" y="109" />
            </Array>
          </mxGeometry>
        </mxCell>
        <mxCell id="zJsW1STvs3hDgHXxntD8-66" value="" style="shape=providedRequiredInterface;html=1;verticalLabelPosition=bottom;sketch=0;direction=south;" vertex="1" parent="1">
          <mxGeometry x="1050" y="261.5" width="20" height="20" as="geometry" />
        </mxCell>
        <mxCell id="zJsW1STvs3hDgHXxntD8-68" style="edgeStyle=orthogonalEdgeStyle;rounded=0;orthogonalLoop=1;jettySize=auto;html=1;exitX=0;exitY=0.5;exitDx=0;exitDy=0;exitPerimeter=0;endArrow=none;startFill=0;entryX=0.665;entryY=0.987;entryDx=0;entryDy=0;entryPerimeter=0;" edge="1" parent="1" source="zJsW1STvs3hDgHXxntD8-66" target="2">
          <mxGeometry relative="1" as="geometry">
            <mxPoint x="830" y="120" as="targetPoint" />
            <Array as="points">
              <mxPoint x="1061" y="210" />
              <mxPoint x="810" y="210" />
            </Array>
          </mxGeometry>
        </mxCell>
        <mxCell id="zJsW1STvs3hDgHXxntD8-69" value="" style="shape=providedRequiredInterface;html=1;verticalLabelPosition=bottom;sketch=0;direction=south;" vertex="1" parent="1">
          <mxGeometry x="1311" y="261.5" width="20" height="20" as="geometry" />
        </mxCell>
        <mxCell id="zJsW1STvs3hDgHXxntD8-70" style="edgeStyle=orthogonalEdgeStyle;rounded=0;orthogonalLoop=1;jettySize=auto;html=1;exitX=1;exitY=0.5;exitDx=0;exitDy=0;exitPerimeter=0;entryX=0.443;entryY=-0.021;entryDx=0;entryDy=0;entryPerimeter=0;endArrow=none;startFill=0;" edge="1" parent="1" source="zJsW1STvs3hDgHXxntD8-69">
          <mxGeometry relative="1" as="geometry">
            <mxPoint x="1321" y="320" as="targetPoint" />
          </mxGeometry>
        </mxCell>
        <mxCell id="zJsW1STvs3hDgHXxntD8-71" style="edgeStyle=orthogonalEdgeStyle;rounded=0;orthogonalLoop=1;jettySize=auto;html=1;exitX=0;exitY=0.5;exitDx=0;exitDy=0;exitPerimeter=0;endArrow=none;startFill=0;" edge="1" parent="1" source="zJsW1STvs3hDgHXxntD8-69">
          <mxGeometry relative="1" as="geometry">
            <mxPoint x="830" y="110" as="targetPoint" />
            <Array as="points">
              <mxPoint x="1321" y="190" />
              <mxPoint x="830" y="190" />
              <mxPoint x="830" y="114" />
            </Array>
          </mxGeometry>
        </mxCell>
        <mxCell id="zJsW1STvs3hDgHXxntD8-72" style="edgeStyle=orthogonalEdgeStyle;rounded=0;orthogonalLoop=1;jettySize=auto;html=1;exitX=1;exitY=0.5;exitDx=0;exitDy=0;exitPerimeter=0;entryX=0.334;entryY=0;entryDx=0;entryDy=0;entryPerimeter=0;endArrow=none;startFill=0;" edge="1" parent="1" source="zJsW1STvs3hDgHXxntD8-66" target="27">
          <mxGeometry relative="1" as="geometry" />
        </mxCell>
        <mxCell id="zJsW1STvs3hDgHXxntD8-73" value="HomeModel" style="text;align=center;fontStyle=1;verticalAlign=middle;spacingLeft=3;spacingRight=3;strokeColor=none;rotatable=0;points=[[0,0.5],[1,0.5]];portConstraint=eastwest;html=1;" vertex="1" parent="1">
          <mxGeometry x="-180" y="258.5" width="80" height="26" as="geometry" />
        </mxCell>
        <mxCell id="zJsW1STvs3hDgHXxntD8-74" value="FilterNekretninaModel" style="text;align=center;fontStyle=1;verticalAlign=middle;spacingLeft=3;spacingRight=3;strokeColor=none;rotatable=0;points=[[0,0.5],[1,0.5]];portConstraint=eastwest;html=1;" vertex="1" parent="1">
          <mxGeometry y="258.5" width="80" height="26" as="geometry" />
        </mxCell>
        <mxCell id="zJsW1STvs3hDgHXxntD8-75" value="NekretninaModel" style="text;align=center;fontStyle=1;verticalAlign=middle;spacingLeft=3;spacingRight=3;strokeColor=none;rotatable=0;points=[[0,0.5],[1,0.5]];portConstraint=eastwest;html=1;" vertex="1" parent="1">
          <mxGeometry x="260" y="258.5" width="80" height="26" as="geometry" />
        </mxCell>
        <mxCell id="zJsW1STvs3hDgHXxntD8-76" value="ObavjestenjeModel" style="text;align=center;fontStyle=1;verticalAlign=middle;spacingLeft=3;spacingRight=3;strokeColor=none;rotatable=0;points=[[0,0.5],[1,0.5]];portConstraint=eastwest;html=1;" vertex="1" parent="1">
          <mxGeometry x="500" y="255.5" width="80" height="26" as="geometry" />
        </mxCell>
        <mxCell id="zJsW1STvs3hDgHXxntD8-77" value="OglasModel" style="text;align=center;fontStyle=1;verticalAlign=middle;spacingLeft=3;spacingRight=3;strokeColor=none;rotatable=0;points=[[0,0.5],[1,0.5]];portConstraint=eastwest;html=1;" vertex="1" parent="1">
          <mxGeometry x="740" y="261.5" width="80" height="26" as="geometry" />
        </mxCell>
        <mxCell id="zJsW1STvs3hDgHXxntD8-78" value="PorukaModel" style="text;align=center;fontStyle=1;verticalAlign=middle;spacingLeft=3;spacingRight=3;strokeColor=none;rotatable=0;points=[[0,0.5],[1,0.5]];portConstraint=eastwest;html=1;" vertex="1" parent="1">
          <mxGeometry x="960" y="255.5" width="80" height="26" as="geometry" />
        </mxCell>
        <mxCell id="zJsW1STvs3hDgHXxntD8-79" value="SesijaModel" style="text;align=center;fontStyle=1;verticalAlign=middle;spacingLeft=3;spacingRight=3;strokeColor=none;rotatable=0;points=[[0,0.5],[1,0.5]];portConstraint=eastwest;html=1;" vertex="1" parent="1">
          <mxGeometry x="1231" y="254.5" width="80" height="26" as="geometry" />
        </mxCell>
        <mxCell id="zJsW1STvs3hDgHXxntD8-84" style="edgeStyle=orthogonalEdgeStyle;rounded=0;orthogonalLoop=1;jettySize=auto;html=1;exitX=0;exitY=0.5;exitDx=0;exitDy=0;exitPerimeter=0;entryX=0.526;entryY=0.999;entryDx=0;entryDy=0;entryPerimeter=0;endArrow=none;startFill=0;" edge="1" parent="1" source="zJsW1STvs3hDgHXxntD8-83" target="18">
          <mxGeometry relative="1" as="geometry">
            <mxPoint x="-84.66666666666652" y="400" as="targetPoint" />
          </mxGeometry>
        </mxCell>
        <mxCell id="zJsW1STvs3hDgHXxntD8-112" style="edgeStyle=orthogonalEdgeStyle;rounded=0;orthogonalLoop=1;jettySize=auto;html=1;exitX=1;exitY=0.5;exitDx=0;exitDy=0;exitPerimeter=0;entryX=0.5;entryY=0;entryDx=0;entryDy=0;endArrow=none;startFill=0;" edge="1" parent="1" source="zJsW1STvs3hDgHXxntD8-83" target="zJsW1STvs3hDgHXxntD8-28">
          <mxGeometry relative="1" as="geometry">
            <Array as="points">
              <mxPoint x="-85" y="680" />
              <mxPoint x="100" y="680" />
            </Array>
          </mxGeometry>
        </mxCell>
        <mxCell id="zJsW1STvs3hDgHXxntD8-83" value="" style="shape=providedRequiredInterface;html=1;verticalLabelPosition=bottom;sketch=0;direction=south;" vertex="1" parent="1">
          <mxGeometry x="-95" y="480" width="20" height="20" as="geometry" />
        </mxCell>
        <mxCell id="zJsW1STvs3hDgHXxntD8-86" style="edgeStyle=orthogonalEdgeStyle;rounded=0;orthogonalLoop=1;jettySize=auto;html=1;exitX=0;exitY=0.5;exitDx=0;exitDy=0;exitPerimeter=0;entryX=0.526;entryY=0.999;entryDx=0;entryDy=0;entryPerimeter=0;endArrow=none;startFill=0;" edge="1" parent="1" source="zJsW1STvs3hDgHXxntD8-87">
          <mxGeometry relative="1" as="geometry">
            <mxPoint x="120" y="390" as="targetPoint" />
          </mxGeometry>
        </mxCell>
        <mxCell id="zJsW1STvs3hDgHXxntD8-87" value="" style="shape=providedRequiredInterface;html=1;verticalLabelPosition=bottom;sketch=0;direction=south;" vertex="1" parent="1">
          <mxGeometry x="110" y="480" width="20" height="20" as="geometry" />
        </mxCell>
        <mxCell id="zJsW1STvs3hDgHXxntD8-88" style="edgeStyle=orthogonalEdgeStyle;rounded=0;orthogonalLoop=1;jettySize=auto;html=1;exitX=0;exitY=0.5;exitDx=0;exitDy=0;exitPerimeter=0;entryX=0.526;entryY=0.999;entryDx=0;entryDy=0;entryPerimeter=0;endArrow=none;startFill=0;" edge="1" parent="1" source="zJsW1STvs3hDgHXxntD8-89">
          <mxGeometry relative="1" as="geometry">
            <mxPoint x="365" y="390" as="targetPoint" />
            <Array as="points">
              <mxPoint x="365" y="440" />
              <mxPoint x="365" y="440" />
            </Array>
          </mxGeometry>
        </mxCell>
        <mxCell id="zJsW1STvs3hDgHXxntD8-122" style="edgeStyle=orthogonalEdgeStyle;rounded=0;orthogonalLoop=1;jettySize=auto;html=1;exitX=1;exitY=0.5;exitDx=0;exitDy=0;exitPerimeter=0;entryX=0.75;entryY=0;entryDx=0;entryDy=0;endArrow=none;startFill=0;" edge="1" parent="1" source="zJsW1STvs3hDgHXxntD8-89" target="zJsW1STvs3hDgHXxntD8-28">
          <mxGeometry relative="1" as="geometry" />
        </mxCell>
        <mxCell id="zJsW1STvs3hDgHXxntD8-89" value="" style="shape=providedRequiredInterface;html=1;verticalLabelPosition=bottom;sketch=0;direction=south;" vertex="1" parent="1">
          <mxGeometry x="270" y="477" width="20" height="20" as="geometry" />
        </mxCell>
        <mxCell id="zJsW1STvs3hDgHXxntD8-90" style="edgeStyle=orthogonalEdgeStyle;rounded=0;orthogonalLoop=1;jettySize=auto;html=1;exitX=0;exitY=0.5;exitDx=0;exitDy=0;exitPerimeter=0;entryX=0.526;entryY=0.999;entryDx=0;entryDy=0;entryPerimeter=0;endArrow=none;startFill=0;" edge="1" parent="1" source="zJsW1STvs3hDgHXxntD8-91">
          <mxGeometry relative="1" as="geometry">
            <mxPoint x="610" y="390" as="targetPoint" />
          </mxGeometry>
        </mxCell>
        <mxCell id="zJsW1STvs3hDgHXxntD8-128" style="edgeStyle=orthogonalEdgeStyle;rounded=0;orthogonalLoop=1;jettySize=auto;html=1;exitX=1;exitY=0.5;exitDx=0;exitDy=0;exitPerimeter=0;entryX=0.558;entryY=0.05;entryDx=0;entryDy=0;entryPerimeter=0;endArrow=none;startFill=0;" edge="1" parent="1" source="zJsW1STvs3hDgHXxntD8-91" target="zJsW1STvs3hDgHXxntD8-30">
          <mxGeometry relative="1" as="geometry">
            <mxPoint x="710" y="650" as="targetPoint" />
            <Array as="points">
              <mxPoint x="610" y="590" />
              <mxPoint x="690" y="590" />
              <mxPoint x="690" y="716" />
            </Array>
          </mxGeometry>
        </mxCell>
        <mxCell id="zJsW1STvs3hDgHXxntD8-91" value="" style="shape=providedRequiredInterface;html=1;verticalLabelPosition=bottom;sketch=0;direction=south;" vertex="1" parent="1">
          <mxGeometry x="600" y="480" width="20" height="20" as="geometry" />
        </mxCell>
        <mxCell id="zJsW1STvs3hDgHXxntD8-92" style="edgeStyle=orthogonalEdgeStyle;rounded=0;orthogonalLoop=1;jettySize=auto;html=1;exitX=0;exitY=0.5;exitDx=0;exitDy=0;exitPerimeter=0;entryX=0.526;entryY=0.999;entryDx=0;entryDy=0;entryPerimeter=0;endArrow=none;startFill=0;" edge="1" parent="1">
          <mxGeometry relative="1" as="geometry">
            <mxPoint x="840" y="390" as="targetPoint" />
            <mxPoint x="839.9999999999995" y="480" as="sourcePoint" />
          </mxGeometry>
        </mxCell>
        <mxCell id="zJsW1STvs3hDgHXxntD8-93" value="" style="shape=providedRequiredInterface;html=1;verticalLabelPosition=bottom;sketch=0;direction=south;" vertex="1" parent="1">
          <mxGeometry x="760" y="481" width="20" height="20" as="geometry" />
        </mxCell>
        <mxCell id="zJsW1STvs3hDgHXxntD8-94" style="edgeStyle=orthogonalEdgeStyle;rounded=0;orthogonalLoop=1;jettySize=auto;html=1;exitX=0;exitY=0.5;exitDx=0;exitDy=0;exitPerimeter=0;entryX=0.526;entryY=0.999;entryDx=0;entryDy=0;entryPerimeter=0;endArrow=none;startFill=0;" edge="1" parent="1" source="zJsW1STvs3hDgHXxntD8-95">
          <mxGeometry relative="1" as="geometry">
            <mxPoint x="1060" y="390" as="targetPoint" />
          </mxGeometry>
        </mxCell>
        <mxCell id="zJsW1STvs3hDgHXxntD8-143" style="edgeStyle=orthogonalEdgeStyle;rounded=0;orthogonalLoop=1;jettySize=auto;html=1;exitX=1;exitY=0.5;exitDx=0;exitDy=0;exitPerimeter=0;endArrow=none;startFill=0;" edge="1" parent="1" source="zJsW1STvs3hDgHXxntD8-95">
          <mxGeometry relative="1" as="geometry">
            <mxPoint x="1059.8823529411766" y="770" as="targetPoint" />
          </mxGeometry>
        </mxCell>
        <mxCell id="zJsW1STvs3hDgHXxntD8-95" value="" style="shape=providedRequiredInterface;html=1;verticalLabelPosition=bottom;sketch=0;direction=south;" vertex="1" parent="1">
          <mxGeometry x="1050" y="480" width="20" height="20" as="geometry" />
        </mxCell>
        <mxCell id="zJsW1STvs3hDgHXxntD8-96" style="edgeStyle=orthogonalEdgeStyle;rounded=0;orthogonalLoop=1;jettySize=auto;html=1;exitX=0;exitY=0.5;exitDx=0;exitDy=0;exitPerimeter=0;entryX=0.526;entryY=0.999;entryDx=0;entryDy=0;entryPerimeter=0;endArrow=none;startFill=0;" edge="1" parent="1" source="zJsW1STvs3hDgHXxntD8-97">
          <mxGeometry relative="1" as="geometry">
            <mxPoint x="1321" y="390" as="targetPoint" />
          </mxGeometry>
        </mxCell>
        <mxCell id="zJsW1STvs3hDgHXxntD8-145" style="edgeStyle=orthogonalEdgeStyle;rounded=0;orthogonalLoop=1;jettySize=auto;html=1;exitX=1;exitY=0.5;exitDx=0;exitDy=0;exitPerimeter=0;endArrow=none;startFill=0;" edge="1" parent="1" source="zJsW1STvs3hDgHXxntD8-97">
          <mxGeometry relative="1" as="geometry">
            <mxPoint x="1120" y="570" as="targetPoint" />
          </mxGeometry>
        </mxCell>
        <mxCell id="zJsW1STvs3hDgHXxntD8-97" value="" style="shape=providedRequiredInterface;html=1;verticalLabelPosition=bottom;sketch=0;direction=south;" vertex="1" parent="1">
          <mxGeometry x="1311" y="480" width="20" height="20" as="geometry" />
        </mxCell>
        <mxCell id="zJsW1STvs3hDgHXxntD8-98" value="HomeView" style="text;align=center;fontStyle=1;verticalAlign=middle;spacingLeft=3;spacingRight=3;strokeColor=none;rotatable=0;points=[[0,0.5],[1,0.5]];portConstraint=eastwest;html=1;" vertex="1" parent="1">
          <mxGeometry x="-175" y="477" width="80" height="26" as="geometry" />
        </mxCell>
        <mxCell id="zJsW1STvs3hDgHXxntD8-99" value="FilterNekretninaView" style="text;align=center;fontStyle=1;verticalAlign=middle;spacingLeft=3;spacingRight=3;strokeColor=none;rotatable=0;points=[[0,0.5],[1,0.5]];portConstraint=eastwest;html=1;" vertex="1" parent="1">
          <mxGeometry x="10" y="474" width="80" height="26" as="geometry" />
        </mxCell>
        <mxCell id="zJsW1STvs3hDgHXxntD8-100" value="NekretninaView" style="text;align=center;fontStyle=1;verticalAlign=middle;spacingLeft=3;spacingRight=3;strokeColor=none;rotatable=0;points=[[0,0.5],[1,0.5]];portConstraint=eastwest;html=1;" vertex="1" parent="1">
          <mxGeometry x="260" y="448" width="80" height="26" as="geometry" />
        </mxCell>
        <mxCell id="zJsW1STvs3hDgHXxntD8-101" value="ObavjestenjeView" style="text;align=center;fontStyle=1;verticalAlign=middle;spacingLeft=3;spacingRight=3;strokeColor=none;rotatable=0;points=[[0,0.5],[1,0.5]];portConstraint=eastwest;html=1;" vertex="1" parent="1">
          <mxGeometry x="625" y="448" width="80" height="26" as="geometry" />
        </mxCell>
        <mxCell id="zJsW1STvs3hDgHXxntD8-102" value="OglasView" style="text;align=center;fontStyle=1;verticalAlign=middle;spacingLeft=3;spacingRight=3;strokeColor=none;rotatable=0;points=[[0,0.5],[1,0.5]];portConstraint=eastwest;html=1;" vertex="1" parent="1">
          <mxGeometry x="760" y="454" width="80" height="26" as="geometry" />
        </mxCell>
        <mxCell id="zJsW1STvs3hDgHXxntD8-103" value="PorukaView" style="text;align=center;fontStyle=1;verticalAlign=middle;spacingLeft=3;spacingRight=3;strokeColor=none;rotatable=0;points=[[0,0.5],[1,0.5]];portConstraint=eastwest;html=1;" vertex="1" parent="1">
          <mxGeometry x="1070" y="455" width="80" height="26" as="geometry" />
        </mxCell>
        <mxCell id="zJsW1STvs3hDgHXxntD8-104" value="SesijaView" style="text;align=center;fontStyle=1;verticalAlign=middle;spacingLeft=3;spacingRight=3;strokeColor=none;rotatable=0;points=[[0,0.5],[1,0.5]];portConstraint=eastwest;html=1;" vertex="1" parent="1">
          <mxGeometry x="1231" y="474" width="80" height="26" as="geometry" />
        </mxCell>
        <mxCell id="zJsW1STvs3hDgHXxntD8-109" style="edgeStyle=orthogonalEdgeStyle;rounded=0;orthogonalLoop=1;jettySize=auto;html=1;exitX=0;exitY=0.5;exitDx=0;exitDy=0;exitPerimeter=0;entryX=0;entryY=0.5;entryDx=0;entryDy=0;entryPerimeter=0;endArrow=none;startFill=0;" edge="1" parent="1" source="zJsW1STvs3hDgHXxntD8-110">
          <mxGeometry relative="1" as="geometry">
            <mxPoint x="380" y="390" as="targetPoint" />
            <Array as="points">
              <mxPoint x="380" y="440" />
              <mxPoint x="380" y="440" />
            </Array>
          </mxGeometry>
        </mxCell>
        <mxCell id="zJsW1STvs3hDgHXxntD8-110" value="" style="shape=providedRequiredInterface;html=1;verticalLabelPosition=bottom;sketch=0;direction=south;flipH=1;" vertex="1" parent="1">
          <mxGeometry x="440" y="477" width="20" height="20" as="geometry" />
        </mxCell>
        <mxCell id="zJsW1STvs3hDgHXxntD8-111" value="NekretninaEditView" style="text;align=center;fontStyle=1;verticalAlign=middle;spacingLeft=3;spacingRight=3;strokeColor=none;rotatable=0;points=[[0,0.5],[1,0.5]];portConstraint=eastwest;html=1;direction=east;flipH=1;" vertex="1" parent="1">
          <mxGeometry x="401" y="448" width="80" height="26" as="geometry" />
        </mxCell>
        <mxCell id="zJsW1STvs3hDgHXxntD8-119" style="edgeStyle=orthogonalEdgeStyle;rounded=0;orthogonalLoop=1;jettySize=auto;html=1;exitX=1;exitY=0.5;exitDx=0;exitDy=0;exitPerimeter=0;entryX=0.614;entryY=0.042;entryDx=0;entryDy=0;entryPerimeter=0;endArrow=none;startFill=0;" edge="1" parent="1" source="zJsW1STvs3hDgHXxntD8-87" target="zJsW1STvs3hDgHXxntD8-28">
          <mxGeometry relative="1" as="geometry" />
        </mxCell>
        <mxCell id="zJsW1STvs3hDgHXxntD8-125" value="" style="endArrow=none;endFill=1;endSize=12;html=1;rounded=0;edgeStyle=elbowEdgeStyle;elbow=vertical;entryX=0.665;entryY=-0.063;entryDx=0;entryDy=0;entryPerimeter=0;startFill=0;" edge="1" parent="1" target="zJsW1STvs3hDgHXxntD8-36">
          <mxGeometry width="160" relative="1" as="geometry">
            <mxPoint x="680" y="610" as="sourcePoint" />
            <mxPoint x="1350" y="610" as="targetPoint" />
            <Array as="points">
              <mxPoint x="1010" y="610" />
            </Array>
          </mxGeometry>
        </mxCell>
        <mxCell id="zJsW1STvs3hDgHXxntD8-126" style="edgeStyle=orthogonalEdgeStyle;rounded=0;orthogonalLoop=1;jettySize=auto;html=1;exitX=1;exitY=0.5;exitDx=0;exitDy=0;exitPerimeter=0;entryX=0.413;entryY=-0.037;entryDx=0;entryDy=0;entryPerimeter=0;endArrow=none;startFill=0;" edge="1" parent="1" source="zJsW1STvs3hDgHXxntD8-110" target="zJsW1STvs3hDgHXxntD8-30">
          <mxGeometry relative="1" as="geometry">
            <Array as="points">
              <mxPoint x="450" y="600" />
              <mxPoint x="664" y="600" />
            </Array>
          </mxGeometry>
        </mxCell>
        <mxCell id="zJsW1STvs3hDgHXxntD8-127" value="" style="endArrow=none;endFill=1;endSize=12;html=1;rounded=0;edgeStyle=elbowEdgeStyle;elbow=vertical;entryX=0.589;entryY=-0.063;entryDx=0;entryDy=0;entryPerimeter=0;startFill=0;" edge="1" parent="1" target="zJsW1STvs3hDgHXxntD8-36">
          <mxGeometry width="160" relative="1" as="geometry">
            <mxPoint x="660" y="600" as="sourcePoint" />
            <mxPoint x="1310" y="590" as="targetPoint" />
            <Array as="points">
              <mxPoint x="990" y="600" />
            </Array>
          </mxGeometry>
        </mxCell>
        <mxCell id="zJsW1STvs3hDgHXxntD8-131" value="" style="line;strokeWidth=1;fillColor=none;align=left;verticalAlign=middle;spacingTop=-1;spacingLeft=3;spacingRight=3;rotatable=0;labelPosition=right;points=[];portConstraint=eastwest;strokeColor=inherit;" vertex="1" parent="1">
          <mxGeometry x="770" y="477" width="70" height="8" as="geometry" />
        </mxCell>
        <mxCell id="zJsW1STvs3hDgHXxntD8-132" style="edgeStyle=orthogonalEdgeStyle;rounded=0;orthogonalLoop=1;jettySize=auto;html=1;exitX=0;exitY=0.5;exitDx=0;exitDy=0;exitPerimeter=0;entryX=0;entryY=0.5;entryDx=0;entryDy=0;entryPerimeter=0;endArrow=none;startFill=0;" edge="1" parent="1" source="zJsW1STvs3hDgHXxntD8-133">
          <mxGeometry relative="1" as="geometry">
            <mxPoint x="850" y="390" as="targetPoint" />
            <Array as="points">
              <mxPoint x="850" y="440" />
              <mxPoint x="850" y="440" />
            </Array>
          </mxGeometry>
        </mxCell>
        <mxCell id="zJsW1STvs3hDgHXxntD8-141" style="edgeStyle=elbowEdgeStyle;rounded=0;orthogonalLoop=1;jettySize=auto;html=1;exitX=1;exitY=0.5;exitDx=0;exitDy=0;exitPerimeter=0;entryX=1;entryY=0.5;entryDx=0;entryDy=0;endArrow=none;startFill=0;" edge="1" parent="1" source="zJsW1STvs3hDgHXxntD8-133" target="zJsW1STvs3hDgHXxntD8-30">
          <mxGeometry relative="1" as="geometry">
            <mxPoint x="919.8823529411766" y="771.88232421875" as="targetPoint" />
          </mxGeometry>
        </mxCell>
        <mxCell id="zJsW1STvs3hDgHXxntD8-133" value="" style="shape=providedRequiredInterface;html=1;verticalLabelPosition=bottom;sketch=0;direction=south;flipH=1;" vertex="1" parent="1">
          <mxGeometry x="910" y="481" width="20" height="20" as="geometry" />
        </mxCell>
        <mxCell id="zJsW1STvs3hDgHXxntD8-136" value="OglasEditView" style="text;align=center;fontStyle=1;verticalAlign=middle;spacingLeft=3;spacingRight=3;strokeColor=none;rotatable=0;points=[[0,0.5],[1,0.5]];portConstraint=eastwest;html=1;" vertex="1" parent="1">
          <mxGeometry x="860" y="454" width="80" height="26" as="geometry" />
        </mxCell>
        <mxCell id="zJsW1STvs3hDgHXxntD8-137" style="edgeStyle=orthogonalEdgeStyle;rounded=0;orthogonalLoop=1;jettySize=auto;html=1;entryX=0.641;entryY=0.132;entryDx=0;entryDy=0;entryPerimeter=0;endArrow=none;startFill=0;" edge="1" parent="1" source="zJsW1STvs3hDgHXxntD8-93" target="zJsW1STvs3hDgHXxntD8-30">
          <mxGeometry relative="1" as="geometry">
            <Array as="points">
              <mxPoint x="770" y="630" />
              <mxPoint x="705" y="630" />
            </Array>
          </mxGeometry>
        </mxCell>
        <mxCell id="zJsW1STvs3hDgHXxntD8-30" value="«Component»&lt;br&gt;&lt;b&gt;Vlasnik/agent nekretnina&lt;/b&gt;" style="html=1;dropTarget=0;whiteSpace=wrap;fillColor=#cce5ff;strokeColor=#36393d;" vertex="1" parent="1">
          <mxGeometry x="590" y="720" width="180" height="60" as="geometry" />
        </mxCell>
        <mxCell id="zJsW1STvs3hDgHXxntD8-31" value="" style="shape=module;jettyWidth=8;jettyHeight=4;" vertex="1" parent="zJsW1STvs3hDgHXxntD8-30">
          <mxGeometry x="1" width="20" height="20" relative="1" as="geometry">
            <mxPoint x="-27" y="7" as="offset" />
          </mxGeometry>
        </mxCell>
        <mxCell id="zJsW1STvs3hDgHXxntD8-138" value="" style="endArrow=none;endFill=1;endSize=12;html=1;rounded=0;edgeStyle=elbowEdgeStyle;elbow=vertical;entryX=0.835;entryY=0.023;entryDx=0;entryDy=0;entryPerimeter=0;startFill=0;" edge="1" parent="1" target="zJsW1STvs3hDgHXxntD8-28">
          <mxGeometry width="160" relative="1" as="geometry">
            <mxPoint x="705" y="630" as="sourcePoint" />
            <mxPoint x="545" y="630" as="targetPoint" />
            <Array as="points">
              <mxPoint x="430" y="630" />
            </Array>
          </mxGeometry>
        </mxCell>
        <mxCell id="zJsW1STvs3hDgHXxntD8-140" value="" style="endArrow=none;endFill=1;endSize=12;html=1;rounded=0;edgeStyle=elbowEdgeStyle;elbow=vertical;entryX=0.431;entryY=-0.022;entryDx=0;entryDy=0;entryPerimeter=0;startFill=0;" edge="1" parent="1" target="zJsW1STvs3hDgHXxntD8-36">
          <mxGeometry width="160" relative="1" as="geometry">
            <mxPoint x="760" y="630.3299999999999" as="sourcePoint" />
            <mxPoint x="920" y="630.3299999999999" as="targetPoint" />
            <Array as="points">
              <mxPoint x="1040" y="630" />
            </Array>
          </mxGeometry>
        </mxCell>
        <mxCell id="zJsW1STvs3hDgHXxntD8-144" value="" style="line;strokeWidth=1;fillColor=none;align=left;verticalAlign=middle;spacingTop=-1;spacingLeft=3;spacingRight=3;rotatable=0;labelPosition=right;points=[];portConstraint=eastwest;strokeColor=inherit;" vertex="1" parent="1">
          <mxGeometry x="770" y="766" width="450" height="8" as="geometry" />
        </mxCell>
        <mxCell id="zJsW1STvs3hDgHXxntD8-146" value="" style="line;strokeWidth=1;fillColor=none;align=left;verticalAlign=middle;spacingTop=-1;spacingLeft=3;spacingRight=3;rotatable=0;labelPosition=right;points=[];portConstraint=eastwest;strokeColor=inherit;direction=south;" vertex="1" parent="1">
          <mxGeometry x="1116" y="570" width="8" height="190" as="geometry" />
        </mxCell>
        <mxCell id="zJsW1STvs3hDgHXxntD8-147" value="" style="line;strokeWidth=1;fillColor=none;align=left;verticalAlign=middle;spacingTop=-1;spacingLeft=3;spacingRight=3;rotatable=0;labelPosition=right;points=[];portConstraint=eastwest;strokeColor=inherit;" vertex="1" parent="1">
          <mxGeometry x="770" y="756" width="450" height="8" as="geometry" />
        </mxCell>
      </root>
    </mxGraphModel>
  </diagram>
</mxfile>
